<svg xmlns="http://www.w3.org/2000/svg" xmlns:xlink="http://www.w3.org/1999/xlink" viewBox="0,0,256,256" width="64px" height="64px" fill-rule="nonzero"><g fill="#ffffff" fill-rule="nonzero" stroke="none" stroke-width="1" stroke-linecap="butt" stroke-linejoin="miter" stroke-miterlimit="10" stroke-dasharray="" stroke-dashoffset="0" font-family="none" font-weight="none" font-size="none" text-anchor="none" style="mix-blend-mode: normal"><g transform="scale(3.55556,3.55556)"><path d="M29.5,14c-14.375,0 -15.5,1.125 -15.5,15.5v13c0,14.375 1.125,15.5 15.5,15.5h13c14.375,0 15.5,-1.125 15.5,-15.5v-13c0,-14.375 -1.125,-15.5 -15.5,-15.5zM26,22h20c3.71,0 4,0.29 4,4v20c0,3.71 -0.29,4 -4,4h-5.35547v-7.93555h4.37891l0.65625,-5.21875h-5.03711v-3.65625c0,-1.448 0.97953,-2.19141 2.01953,-2.19141c1.04,0 3.19336,-0.02734 3.19336,-0.02734v-4.67187c0,0 -1.91705,-0.2207 -3.87305,-0.2207c-1.645,0 -3.4543,0.46213 -4.9043,1.95313c-1.475,1.516 -1.6875,3.75433 -1.6875,6.48633v2.32813h-4.39062v5.21875h4.39063v7.93555h-9.39062c-3.71,0 -4,-0.29 -4,-4v-20c0,-3.71 0.29,-4 4,-4z"></path></g></g></svg>