<svg xmlns="http://www.w3.org/2000/svg" xmlns:xlink="http://www.w3.org/1999/xlink" viewBox="0,0,256,256" width="64px" height="64px" fill-rule="nonzero"><g fill="#ffffff" fill-rule="nonzero" stroke="none" stroke-width="1" stroke-linecap="butt" stroke-linejoin="miter" stroke-miterlimit="10" stroke-dasharray="" stroke-dashoffset="0" font-family="none" font-weight="none" font-size="none" text-anchor="none" style="mix-blend-mode: normal"><g transform="scale(3.55556,3.55556)"><path d="M35.75,14c-20.171,0 -21.75,1.579 -21.75,21.75v0.5c0,20.171 1.579,21.75 21.75,21.75h0.5c20.171,0 21.75,-1.579 21.75,-21.75v-0.5c0,-20.171 -1.579,-21.75 -21.75,-21.75zM30,22h12c7.419,0 8,0.581 8,8v12c0,7.419 -0.581,8 -8,8h-12c-7.419,0 -8,-0.581 -8,-8v-12c0,-7.419 0.581,-8 8,-8zM45.49609,25c-0.828,0.002 -1.49809,0.67491 -1.49609,1.50391c0.002,0.828 0.67491,1.49809 1.50391,1.49609c0.828,-0.002 1.49809,-0.67491 1.49609,-1.50391c-0.002,-0.828 -0.67491,-1.49809 -1.50391,-1.49609zM35.97656,26c-5.522,0.013 -9.98956,4.50144 -9.97656,10.02344c0.013,5.522 4.50144,9.98956 10.02344,9.97656c5.522,-0.013 9.98956,-4.50144 9.97656,-10.02344c-0.013,-5.522 -4.50144,-9.98956 -10.02344,-9.97656zM35.99023,32c2.209,-0.005 4.00377,1.78123 4.00977,3.99023c0.005,2.209 -1.78123,4.00477 -3.99023,4.00977c-2.209,0.005 -4.00377,-1.78123 -4.00977,-3.99023c-0.005,-2.209 1.78123,-4.00377 3.99023,-4.00977z"></path></g></g></svg>