<svg xmlns="http://www.w3.org/2000/svg" xmlns:xlink="http://www.w3.org/1999/xlink" viewBox="0,0,256,256" width="64px" height="64px" fill-rule="nonzero"><g fill="#ffffff" fill-rule="nonzero" stroke="none" stroke-width="1" stroke-linecap="butt" stroke-linejoin="miter" stroke-miterlimit="10" stroke-dasharray="" stroke-dashoffset="0" font-family="none" font-weight="none" font-size="none" text-anchor="none" style="mix-blend-mode: normal"><g transform="scale(3.55556,3.55556)"><path d="M36,17c-19.195,0 -21.75875,0.19789 -24.21875,2.71289c-2.46,2.514 -2.78125,6.51011 -2.78125,16.28711c0,9.777 0.32125,13.77211 2.78125,16.28711c2.46,2.515 5.02375,2.71289 24.21875,2.71289c19.195,0 21.75875,-0.19789 24.21875,-2.71289c2.46,-2.515 2.78125,-6.51011 2.78125,-16.28711c0,-9.777 -0.32125,-13.77311 -2.78125,-16.28711c-2.46,-2.515 -5.02375,-2.71289 -24.21875,-2.71289zM44.16016,24.99609c6.53363,0.01313 8.5533,0.13417 9.37305,0.88867c1.094,1.005 1.4668,3.70123 1.4668,10.11523c0,6.414 -0.3728,9.11023 -1.4668,10.11523c-1.093,1.006 -4.3182,0.88477 -17.5332,0.88477c-13.215,0 -16.4392,0.12023 -17.5332,-0.88477c-1.094,-1.005 -1.4668,-3.70123 -1.4668,-10.11523c0,-6.414 0.5348,-9.19623 1.4668,-10.11523c0.932,-0.919 4.3182,-0.88477 17.5332,-0.88477c3.30375,0 5.98228,-0.00828 8.16016,-0.00391zM31.44531,28.16797v15.66406l13.62305,-7.89453z"></path></g></g></svg>